<svg xmlns="http://www.w3.org/2000/svg" viewBox="0 0 64 64">
  <defs>
    <linearGradient id="g" x1="10" y1="8" x2="56" y2="58">
      <stop offset="0" stop-color="#18b7a7"/>
      <stop offset=".55" stop-color="#0f7892"/>
      <stop offset="1" stop-color="#163c5f"/>
    </linearGradient>
  </defs>
  <path d="M31.7 8.6c11.9 0 22.9 9.1 27.1 22.7-4.2 13.6-15.2 22.7-27.1 22.7S8.8 44.9 4.6 31.3C8.8 17.7 19.8 8.6 31.7 8.6Z" fill="url(#g)"/>
  <path d="M18.2 32.2c4.8-8.3 15.7-10.9 24.5-5.7 3.4 2 6.1 5 7.8 8.4-5.2 7-15.3 8.8-23.3 4.1-3.8-2.2-6.8-5.6-9-6.8Z" fill="#f7fffb"/>
  <path d="M15.2 21.8c3.7 1.2 7 3.5 9.5 6.7-2 2.4-5.1 4.2-9.2 5.3-1-4-1.1-8.1-.3-12Z" fill="#f6c85f"/>
  <circle cx="42.4" cy="31.3" r="2.4" fill="#17364a"/>
</svg>
